<?xml version="1.0" encoding="utf-8"?>
<!-- Generator: Adobe Illustrator 27.5.0, SVG Export Plug-In . SVG Version: 6.00 Build 0)  -->
<svg version="1.1" id="Layer_1" xmlns="http://www.w3.org/2000/svg" xmlns:xlink="http://www.w3.org/1999/xlink" x="0px" y="0px"
	 viewBox="0 0 24 24" style="enable-background:new 0 0 24 24;" xml:space="preserve">
<style type="text/css">
	.st0{fill:#FFFFFF;}
</style>
<g>
	<path class="st0" d="M9.5,14.1C9.2,15.1,9,16,8.8,16.9c0,0.1-0.1,0.3-0.1,0.4c-0.1,0.4-0.5,0.6-0.9,0.5c-0.4-0.1-0.6-0.5-0.5-0.9
		c0.2-0.7,0.4-1.3,0.5-2c0-0.2,0.1-0.4,0.1-0.5c0,0,0-0.1,0-0.1c-0.7-0.5-1.4-1-2-1.5c-0.2-0.2-0.4-0.4-0.5-0.7
		c-0.1-0.4-0.1-0.7,0.2-1.1c0.5-0.7,1-1.4,1.6-2.1c0,0,0.1-0.1,0.1-0.2C7.1,8.7,7,8.7,6.9,8.6C6.6,8.5,6.3,8.4,6,8.2
		c0,0-0.1,0-0.1,0C5.2,8.6,4.6,9,4,9.4C3.7,9.5,3.4,9.5,3.2,9.2C3,8.9,3.1,8.6,3.4,8.4c0.2-0.1,0.3-0.2,0.5-0.3
		c0.6-0.3,1.1-0.7,1.7-1C5.7,7,5.9,7,6.1,7c0.8,0.2,1.5,0.5,2.3,0.7c0,0,0.1,0,0.1,0c0.2,0.2,0.5,0.3,0.7,0.5C9.6,8.5,9.7,9,9.5,9.4
		c-0.5,0.9-1,1.7-1.6,2.6c0,0.1,0,0.1,0,0.1c0.5,0.5,0.9,1,1.4,1.4C9.5,13.7,9.6,13.9,9.5,14.1z M4.9,12.7c-0.1-0.1-0.1-0.2-0.2-0.3
		c0,0,0,0.1-0.1,0.1c-0.2,0.3-0.4,0.6-0.6,0.8c0,0-0.1,0.1-0.1,0.1c-0.7-0.1-1.5-0.1-2.2-0.2c-0.4,0-0.8,0.3-0.8,0.7
		c0,0.4,0.3,0.7,0.7,0.8c0.3,0,0.6,0,1,0.1c0.5,0,1,0.1,1.5,0.1c0.4,0,0.7-0.1,1-0.4c0.2-0.3,0.5-0.6,0.7-0.8c0,0,0,0,0-0.1
		c-0.1-0.1-0.3-0.2-0.4-0.3C5.2,13,5.1,12.9,4.9,12.7z M10.1,7.9c0.7,0.1,1.4-0.5,1.4-1.2c0.1-0.7-0.5-1.4-1.2-1.4
		C9.6,5.2,9,5.7,8.9,6.5C8.8,7.2,9.4,7.8,10.1,7.9z M11.4,11.2c-0.3,0-0.7-0.1-1-0.1c-0.1,0-0.1,0-0.1-0.1c-0.1-0.3-0.2-0.5-0.2-0.7
		C10,10.2,9.9,10,9.9,9.9c0,0,0,0,0,0c-0.2,0.4-0.5,0.8-0.7,1.2c0,0,0,0.1,0,0.1c0.1,0.2,0.2,0.5,0.3,0.7c0.1,0.3,0.3,0.4,0.6,0.4
		c0.3,0,0.5,0,0.8,0.1c0-0.1,0-0.1,0.1-0.2L11.4,11.2z M12.1,12.4c0.3,0,0.6-0.3,0.6-0.6c0-0.1,0-0.2-0.1-0.3L12.1,12.4
		C12,12.4,12,12.4,12.1,12.4z M19.8,14.6c-0.5-0.5-0.9-1-1.4-1.4c0,0,0-0.1,0-0.1c0.5-0.9,1-1.7,1.6-2.6c0.3-0.4,0.1-0.9-0.3-1.2
		c-0.2-0.2-0.5-0.3-0.7-0.5c0,0-0.1,0-0.1,0c-0.8-0.2-1.5-0.5-2.3-0.7C16.3,8,16.2,8,16,8.1c-0.6,0.3-1.1,0.7-1.7,1
		c-0.2,0.1-0.3,0.2-0.5,0.3c-0.3,0.2-0.3,0.5-0.1,0.8c0.2,0.3,0.5,0.3,0.8,0.2c0.6-0.4,1.2-0.7,1.8-1.1c0,0,0.1,0,0.1,0
		c0.3,0.1,0.6,0.3,0.9,0.4c0.1,0,0.2,0.1,0.2,0.1c0,0.1-0.1,0.1-0.1,0.2c-0.5,0.7-1,1.4-1.6,2.1c-0.2,0.3-0.3,0.7-0.2,1.1
		c0.1,0.3,0.3,0.5,0.5,0.7c0.7,0.5,1.4,1,2,1.5c0,0,0,0.1,0,0.1c-0.1,0.2-0.1,0.4-0.1,0.5c-0.2,0.7-0.4,1.3-0.5,2
		c-0.1,0.4,0.1,0.8,0.5,0.9c0.4,0.1,0.8-0.1,0.9-0.5c0-0.1,0.1-0.3,0.1-0.4c0.2-0.9,0.5-1.8,0.7-2.7C20,14.9,19.9,14.7,19.8,14.6z
		 M15.4,13.7c-0.1-0.1-0.1-0.2-0.2-0.3c0,0,0,0.1-0.1,0.1c-0.2,0.3-0.4,0.6-0.6,0.8c0,0-0.1,0.1-0.1,0.1c-0.7-0.1-1.5-0.1-2.2-0.2
		c-0.4,0-0.8,0.3-0.8,0.7c0,0.4,0.3,0.7,0.7,0.8c0.3,0,0.6,0,1,0.1c0.5,0,1,0.1,1.5,0.1c0.4,0,0.7-0.1,1-0.4
		c0.2-0.3,0.5-0.6,0.7-0.8c0,0,0,0,0-0.1c-0.1-0.1-0.3-0.2-0.4-0.3C15.7,14.1,15.5,13.9,15.4,13.7z M20.6,8.9
		C21.3,9,21.9,8.4,22,7.7c0.1-0.7-0.5-1.4-1.2-1.4c-0.7-0.1-1.4,0.5-1.4,1.2C19.3,8.2,19.8,8.8,20.6,8.9z M22.5,12.3
		c-0.6,0-1.1-0.1-1.7-0.1c-0.1,0-0.1,0-0.1-0.1c-0.1-0.3-0.2-0.5-0.2-0.7c-0.1-0.2-0.1-0.3-0.2-0.5c0,0,0,0,0,0
		c-0.2,0.4-0.5,0.8-0.7,1.2c0,0,0,0.1,0,0.1c0.1,0.2,0.2,0.5,0.3,0.7c0.1,0.3,0.3,0.4,0.6,0.4c0.5,0,1,0.1,1.5,0.1
		c0.2,0,0.4,0,0.6,0c0.3,0,0.6-0.3,0.6-0.6C23.1,12.6,22.8,12.3,22.5,12.3z M13,10.3c0.1-0.2,0-0.4-0.1-0.5c0,0-0.1,0-0.1,0
		c-0.1,0-0.2,0-0.3,0.2L11,12.3c-0.1,0.2,0,0.4,0.1,0.5c0,0,0.1,0,0.1,0c0.1,0,0.2,0,0.3-0.2L13,10.3z"/>
</g>
</svg>
