<?xml version="1.0" standalone="no"?>
<!DOCTYPE svg PUBLIC "-//W3C//DTD SVG 20010904//EN"
 "http://www.w3.org/TR/2001/REC-SVG-20010904/DTD/svg10.dtd">
<svg version="1.0" xmlns="http://www.w3.org/2000/svg"
 width="700.000000pt" height="700.000000pt" viewBox="0 0 700.000000 700.000000"
 preserveAspectRatio="xMidYMid meet">
<metadata>
Created by potrace 1.14, written by Peter Selinger 2001-2017
</metadata>
<g transform="translate(0.000000,700.000000) scale(0.100000,-0.100000)"
fill="#000000" stroke="none">
<path d="M3457 6324 c-1 -1 -67 -4 -147 -8 -128 -6 -180 -11 -305 -32 -103
-17 -384 -96 -480 -134 -11 -4 -47 -18 -80 -31 -155 -58 -391 -182 -555 -292
-256 -171 -439 -331 -604 -527 -39 -47 -75 -90 -81 -96 -12 -13 -113 -159
-162 -234 -89 -138 -190 -344 -247 -506 -28 -81 -64 -199 -70 -234 -2 -14 -11
-54 -20 -90 -42 -177 -51 -357 -32 -660 15 -245 18 -296 22 -315 2 -11 6 -42
9 -68 12 -111 77 -372 130 -517 59 -164 155 -376 221 -487 89 -150 125 -206
177 -277 110 -148 227 -281 212 -241 -14 37 -13 208 1 260 7 28 13 55 14 60 0
6 -27 46 -60 90 -180 243 -340 620 -415 981 -4 19 -7 38 -20 127 -4 35 -16
177 -17 212 -2 54 -37 50 493 49 358 -1 493 -4 498 -12 4 -7 8 -51 10 -99 1
-49 4 -101 5 -118 2 -16 7 -64 11 -105 4 -41 9 -78 11 -81 2 -4 6 -27 9 -51 9
-74 70 -302 127 -473 l53 -160 133 0 c122 -1 148 4 122 20 -5 3 -10 11 -10 18
0 6 6 4 13 -5 14 -20 21 -21 117 -19 l75 1 -110 106 c-60 59 -145 136 -188
172 -159 133 -280 324 -303 479 -25 166 16 323 139 525 27 45 29 55 32 180 2
73 6 149 9 168 4 19 9 52 11 73 11 87 16 114 40 220 33 147 174 587 188 587 7
0 81 -25 203 -68 l141 -50 63 105 c34 57 60 107 57 109 -3 3 -34 12 -68 20
-112 25 -301 88 -306 100 -2 7 9 42 26 79 17 36 31 69 31 71 0 17 178 357 235
449 79 128 250 382 274 407 13 14 39 18 131 20 l115 3 3 -324 c2 -294 4 -322
19 -317 49 19 173 46 210 46 l43 0 1 113 c0 61 0 196 -1 300 -1 173 1 187 17
188 111 8 243 -8 243 -30 0 -3 24 -36 53 -72 28 -37 61 -79 73 -95 l21 -28 63
68 c117 125 297 230 427 250 31 5 18 15 -49 39 -213 75 -361 110 -550 132 -53
6 -129 15 -168 21 -23 3 -280 11 -283 8z m-723 -386 c-4 -7 -34 -53 -66 -101
-32 -49 -58 -90 -58 -92 0 -1 -17 -32 -38 -66 -54 -89 -169 -322 -225 -454
-25 -60 -50 -111 -55 -113 -25 -8 -416 198 -495 262 l-39 31 77 72 c156 145
379 283 605 372 99 39 264 95 298 100 2 1 0 -5 -4 -11z m-1069 -784 c30 -22
343 -179 481 -241 l72 -33 -43 -102 c-55 -136 -118 -334 -141 -447 -3 -12 -11
-51 -19 -85 -7 -33 -17 -81 -20 -106 -3 -25 -8 -52 -10 -60 -8 -29 -33 -229
-41 -320 -2 -36 -7 -79 -10 -96 l-4 -30 -498 0 c-273 1 -502 4 -508 8 -8 5 -9
20 -4 45 5 21 11 65 15 98 3 33 8 67 10 75 3 8 7 29 9 45 30 232 125 548 233
774 77 161 217 374 325 495 l50 57 37 -28 c20 -15 50 -37 66 -49z"/>
<path d="M4593 5920 c-110 -22 -244 -97 -321 -179 -146 -155 -193 -383 -121
-576 58 -155 175 -271 344 -341 64 -26 80 -29 190 -28 137 0 207 19 303 80
265 170 344 503 184 769 -121 202 -364 317 -579 275z"/>
<path d="M5435 5571 c29 -91 41 -296 21 -359 -4 -11 9 -33 37 -62 158 -164
343 -500 439 -795 36 -112 84 -306 93 -376 4 -30 9 -57 11 -60 6 -11 18 -141
19 -208 l0 -65 -430 -1 -430 0 -80 -55 c-44 -30 -88 -59 -97 -65 -76 -45 -220
-141 -225 -148 -4 -6 -1 -7 6 -2 10 6 11 -16 6 -101 -3 -60 -8 -120 -10 -134
-20 -138 -30 -190 -80 -410 -13 -55 -84 -284 -105 -335 -5 -11 -20 -52 -35
-91 l-27 -70 -126 47 c-70 26 -128 46 -131 44 -2 -3 20 -33 50 -69 178 -212
227 -293 262 -433 l20 -83 34 87 c19 48 36 89 38 91 15 15 545 -283 545 -306
0 -12 -131 -135 -205 -194 -198 -158 -464 -287 -705 -343 -8 -2 -28 -7 -45
-11 -29 -7 -29 -7 -15 14 8 12 39 56 68 98 29 42 49 74 45 72 -141 -71 -251
-108 -323 -108 -21 0 -34 -8 -47 -27 -9 -16 -37 -55 -62 -88 -24 -33 -45 -61
-46 -62 -1 -3 -102 -9 -205 -14 l-54 -3 1 97 2 98 -137 -3 -137 -3 -2 -75 c0
-41 -2 -85 -2 -98 l-1 -24 -117 7 c-134 7 -124 1 -205 115 l-54 74 -137 1
c-75 0 -137 0 -137 -1 0 -1 11 -22 25 -46 l25 -45 -62 17 c-35 10 -94 30 -133
45 -68 26 -77 27 -305 30 -129 2 -251 6 -270 9 -31 6 -33 5 -20 -7 50 -48 355
-208 515 -271 182 -70 449 -146 585 -166 41 -6 86 -14 100 -17 14 -3 165 -7
335 -9 316 -2 395 3 590 42 397 79 812 256 1105 473 534 394 919 973 1054
1586 14 61 27 124 29 140 3 17 8 46 11 65 14 80 16 99 23 190 9 118 9 339 0
445 -4 44 -9 127 -12 185 -11 204 -52 394 -142 660 -66 197 -168 420 -248 545
-19 31 -35 58 -35 60 0 9 -102 148 -164 225 -69 85 -245 268 -277 288 -19 12
-20 11 -14 -7z m622 -2220 c7 -1 11 -7 8 -13 -2 -7 -6 -52 -9 -99 -10 -174
-54 -388 -116 -564 -117 -330 -265 -610 -397 -750 -10 -11 -38 -46 -62 -77
-24 -32 -48 -58 -53 -58 -6 0 -22 8 -36 19 -47 32 -140 82 -374 198 -124 61
-228 118 -230 125 -3 7 3 32 13 56 67 156 194 571 224 731 27 141 46 281 48
347 1 51 6 81 14 84 10 4 917 5 970 1z"/>
<path d="M3568 5224 c-2 -1 -19 -6 -38 -9 -83 -15 -204 -96 -274 -185 -10 -13
-66 -105 -123 -204 -57 -100 -107 -188 -113 -196 -5 -8 -31 -53 -57 -100 -27
-47 -191 -332 -364 -635 -173 -302 -323 -566 -331 -585 -51 -110 -50 -240 3
-348 27 -54 60 -94 174 -207 154 -153 335 -325 598 -568 54 -50 102 -98 107
-107 7 -13 -57 -15 -588 -16 -539 0 -603 -2 -656 -18 -106 -31 -186 -98 -232
-192 -53 -109 -31 -287 48 -385 24 -29 101 -79 137 -89 85 -23 199 -25 1196
-25 1015 0 1052 1 1102 19 186 69 272 251 206 436 -26 72 -62 125 -213 312
-69 86 -164 205 -211 264 -233 295 -393 499 -469 599 -47 61 -92 118 -101 129
-10 10 -23 31 -29 46 -10 25 -4 39 81 186 51 88 96 163 100 168 4 5 21 -19 38
-52 57 -113 129 -227 168 -266 95 -96 229 -106 384 -27 119 61 1158 752 1214
809 82 81 106 123 111 195 10 155 -81 334 -200 392 -48 24 -65 27 -129 24 -93
-5 -146 -31 -372 -180 -275 -181 -527 -340 -532 -335 -4 4 -15 76 -38 246 -8
64 -35 245 -39 265 -2 11 -7 43 -10 70 -17 127 -28 168 -60 213 -42 60 -76
122 -104 192 -23 58 -49 81 -133 122 -62 30 -126 45 -191 45 -31 1 -58 -1 -60
-3z"/>
</g>
</svg>
